<svg width="24" height="24" viewBox="0 0 24 24" fill="none" xmlns="http://www.w3.org/2000/svg">
<g clip-path="url(#clip0_128_128)">
<rect width="24" height="24" rx="12" fill="#667085"/>
<path d="M8.95881 16V7.27273H12.1548C12.7741 7.27273 13.2869 7.375 13.6932 7.57955C14.0994 7.78125 14.4034 8.0554 14.6051 8.40199C14.8068 8.74574 14.9077 9.13352 14.9077 9.56534C14.9077 9.92898 14.8409 10.2358 14.7074 10.4858C14.5739 10.733 14.3949 10.9318 14.1705 11.0824C13.9489 11.2301 13.7045 11.3381 13.4375 11.4062V11.4915C13.7273 11.5057 14.0099 11.5994 14.2855 11.7727C14.5639 11.9432 14.794 12.1861 14.9759 12.5014C15.1577 12.8168 15.2486 13.2003 15.2486 13.652C15.2486 14.098 15.1435 14.4986 14.9332 14.8537C14.7259 15.206 14.4048 15.4858 13.9702 15.6932C13.5355 15.8977 12.9801 16 12.304 16H8.95881ZM10.2756 14.8707H12.1761C12.8068 14.8707 13.2585 14.7486 13.5312 14.5043C13.804 14.2599 13.9403 13.9545 13.9403 13.5881C13.9403 13.3125 13.8707 13.0597 13.7315 12.8295C13.5923 12.5994 13.3935 12.4162 13.1349 12.2798C12.8793 12.1435 12.5753 12.0753 12.223 12.0753H10.2756V14.8707ZM10.2756 11.0483H12.0398C12.3352 11.0483 12.6009 10.9915 12.8366 10.8778C13.0753 10.7642 13.2642 10.6051 13.4034 10.4006C13.5455 10.1932 13.6165 9.94886 13.6165 9.66761C13.6165 9.30682 13.4901 9.00426 13.2372 8.75994C12.9844 8.51562 12.5966 8.39347 12.0739 8.39347H10.2756V11.0483Z" fill="white"/>
</g>
<defs>
<clipPath id="clip0_128_128">
<rect width="24" height="24" rx="12" fill="white"/>
</clipPath>
</defs>
</svg>
