<svg width="15" height="15" viewBox="0 0 15 15" fill="none" xmlns="http://www.w3.org/2000/svg">
<path fill-rule="evenodd" clip-rule="evenodd" d="M6.79843 0C8.58495 0 10.0384 1.4925 10.0384 3.327V4.026C10.0384 4.3365 9.79301 4.5885 9.49063 4.5885C9.18825 4.5885 8.94284 4.3365 8.94284 4.026V3.327C8.94284 2.112 7.98092 1.125 6.79843 1.125H3.2378C2.05677 1.125 1.09558 2.112 1.09558 3.327V11.6737C1.09558 12.888 2.05677 13.875 3.2378 13.875H6.80646C7.98384 13.875 8.94284 12.891 8.94284 11.682V10.9748C8.94284 10.6643 9.18825 10.4123 9.49063 10.4123C9.79301 10.4123 10.0384 10.6643 10.0384 10.9748V11.682C10.0384 13.512 8.58787 15 6.80646 15H3.2378C1.45274 15 0 13.5082 0 11.6737V3.327C0 1.4925 1.45274 0 3.2378 0H6.79843ZM12.7 4.9155L14.8386 7.10175C14.8577 7.12119 14.8747 7.1414 14.8904 7.1628L14.8386 7.10175C14.8645 7.12795 14.8875 7.15657 14.9074 7.1871C14.9162 7.20093 14.9247 7.21524 14.9326 7.22994C14.9389 7.24142 14.9448 7.25341 14.9502 7.2656C14.9549 7.27636 14.9593 7.28714 14.9634 7.29808C14.9689 7.31233 14.9737 7.32698 14.9779 7.34183C14.9811 7.35353 14.9841 7.36519 14.9866 7.377C14.9899 7.39133 14.9925 7.40574 14.9945 7.42026C14.9956 7.4297 14.9967 7.4396 14.9976 7.44957C14.9993 7.46667 15 7.4833 15 7.5L14.9963 7.5465L14.9948 7.57629C14.9946 7.57757 14.9944 7.57884 14.9943 7.58011L15 7.5C15 7.54163 14.9955 7.58286 14.9868 7.62294C14.9841 7.63481 14.9811 7.64647 14.9779 7.65799C14.9737 7.67302 14.9689 7.68767 14.9635 7.70209C14.9593 7.71286 14.9549 7.72364 14.9501 7.73423C14.9448 7.74659 14.9389 7.75858 14.9327 7.77034C14.9247 7.78476 14.9162 7.79907 14.9072 7.81293C14.902 7.82115 14.8964 7.82927 14.8906 7.83724C14.8732 7.86073 14.8542 7.88283 14.8337 7.9033L12.7 10.0852C12.5934 10.1947 12.4531 10.2495 12.3136 10.2495C12.1734 10.2495 12.0324 10.1947 11.9258 10.0837C11.7125 9.86325 11.7133 9.50775 11.9273 9.28875L13.125 8.0625H5.65742C5.35504 8.0625 5.10963 7.8105 5.10963 7.5C5.10963 7.1895 5.35504 6.9375 5.65742 6.9375H13.1265L11.9273 5.712C11.7133 5.493 11.7118 5.1375 11.9258 4.917C12.1391 4.6965 12.4853 4.6965 12.7 4.9155Z" fill="#667085"/>
</svg>
