<svg width="15" height="15" viewBox="0 0 15 15" fill="none" xmlns="http://www.w3.org/2000/svg">
<path fill-rule="evenodd" clip-rule="evenodd" d="M5.53921 0C6.22844 0.000725725 6.88506 0.330205 7.29671 0.88103L7.95695 1.76061C8.1664 2.03929 8.49906 2.20548 8.84693 2.2062H10.8972C13.6962 2.2062 15 3.64241 15 6.72601L14.9797 10.3307C14.979 13.2104 13.1918 15 10.3145 15H4.67459C1.79156 15 0 13.2096 0 10.3285V4.66859C0 1.57047 1.37629 0 4.08972 0H5.53921ZM5.53848 1.08859H4.08972C1.98507 1.08859 1.08711 2.15976 1.08711 4.66859V10.3285C1.08711 12.6392 2.36121 13.9114 4.67459 13.9114H10.3145C12.6221 13.9114 13.8926 12.6392 13.8926 10.3285V10.3263L13.9129 6.72311C13.9129 4.25637 13.0678 3.29479 10.8972 3.29479H8.84621C8.15843 3.29406 7.50181 2.96531 7.08871 2.41521L6.42702 1.53418C6.21902 1.25478 5.88636 1.08931 5.53848 1.08859ZM10.6655 8.86313C10.9655 8.86313 11.209 9.10697 11.209 9.40742C11.209 9.70787 10.9655 9.95172 10.6655 9.95172H4.33483C4.03479 9.95172 3.79127 9.70787 3.79127 9.40742C3.79127 9.10697 4.03479 8.86313 4.33483 8.86313H10.6655Z" fill="#667085"/>
</svg>
