<svg width="19" height="19" viewBox="0 0 19 19" fill="none" xmlns="http://www.w3.org/2000/svg">
<g clip-path="url(#clip0_88_282)">
<path d="M9.58461 18.061C14.3125 18.061 18.1453 14.2282 18.1453 9.50029C18.1453 4.77236 14.3125 0.939606 9.58461 0.939606C4.85668 0.939606 1.02393 4.77236 1.02393 9.50029C1.02393 14.2282 4.85668 18.061 9.58461 18.061Z" fill="white"/>
<path d="M9.48248 0C12.1398 0 14.4023 0.927734 16.2682 2.78231C17.1612 3.67561 17.8401 4.69656 18.3038 5.84428C18.7673 6.9923 18.9997 8.21067 18.9997 9.5C18.9997 10.8006 18.7702 12.0193 18.3127 13.1554C17.8547 14.2919 17.1787 15.2959 16.2857 16.1666C15.3585 17.0825 14.3067 17.784 13.1302 18.2703C11.9543 18.7566 10.7383 18.9997 9.48308 18.9997C8.22789 18.9997 7.02614 18.7598 5.87812 18.2786C4.73041 17.7983 3.70114 17.1027 2.79062 16.1925C1.88011 15.2822 1.1875 14.2556 0.7125 13.1133C0.2375 11.9709 0 10.7668 0 9.5C0 8.24452 0.240172 7.03742 0.720812 5.87812C1.20145 4.71883 1.9 3.68125 2.81586 2.76509C4.62531 0.922094 6.84742 0 9.48248 0ZM9.51692 1.71356C7.34558 1.71356 5.51891 2.47148 4.0372 3.98673C3.29056 4.74466 2.7167 5.5955 2.31533 6.53986C1.91336 7.48422 1.71297 8.47103 1.71297 9.5003C1.71297 10.5183 1.91336 11.4995 2.31533 12.4432C2.717 13.3882 3.29056 14.2307 4.0372 14.9714C4.78355 15.7124 5.62578 16.2774 6.56509 16.668C7.50352 17.0581 8.48766 17.2532 9.51692 17.2532C10.5346 17.2532 11.5208 17.0558 12.4777 16.6597C13.4333 16.2634 14.2948 15.6928 15.0643 14.9465C16.5457 13.4989 17.2861 11.6838 17.2861 9.50059C17.2861 8.44877 17.0938 7.45364 16.7093 6.51492C16.3255 5.5762 15.7653 4.73961 15.0308 4.00395C13.5031 2.47713 11.6657 1.71356 9.51692 1.71356ZM9.39787 7.9227L8.12517 8.58444C7.9892 8.30211 7.82266 8.1038 7.62494 7.99069C7.42692 7.87788 7.24316 7.82117 7.07334 7.82117C6.22547 7.82117 5.80094 8.38078 5.80094 9.50059C5.80094 10.0094 5.90841 10.4162 6.12305 10.7216C6.33798 11.0271 6.65475 11.18 7.07334 11.18C7.62761 11.18 8.0177 10.9084 8.24422 10.3657L9.4145 10.9594C9.16572 11.4235 8.82075 11.788 8.37959 12.0537C7.93903 12.3197 7.45245 12.4524 6.92075 12.4524C6.07258 12.4524 5.38798 12.1927 4.86786 11.6719C4.34773 11.1518 4.08767 10.428 4.08767 9.50089C4.08767 8.59601 4.3507 7.87817 4.87647 7.34647C5.40223 6.81506 6.06664 6.54906 6.86998 6.54906C8.0465 6.54847 8.88873 7.00655 9.39787 7.9227ZM14.8773 7.9227L13.6218 8.58444C13.4861 8.30211 13.319 8.1038 13.1213 7.99069C12.923 7.87788 12.7333 7.82117 12.5531 7.82117C11.7049 7.82117 11.2804 8.38078 11.2804 9.50059C11.2804 10.0094 11.3881 10.4162 11.6028 10.7216C11.8174 11.0271 12.1339 11.18 12.5531 11.18C13.1067 11.18 13.4971 10.9084 13.723 10.3657L14.9105 10.9594C14.6508 11.4235 14.2999 11.788 13.8593 12.0537C13.4182 12.3197 12.9375 12.4524 12.4174 12.4524C11.5576 12.4524 10.871 12.1927 10.3568 11.6719C9.84141 11.1518 9.58431 10.428 9.58431 9.50089C9.58431 8.59601 9.84705 7.87817 10.3734 7.34647C10.8989 6.81506 11.5633 6.54906 12.3663 6.54906C13.5425 6.54847 14.38 7.00655 14.8773 7.9227Z" fill="black"/>
</g>
<defs>
<clipPath id="clip0_88_282">
<rect width="19" height="19" fill="white"/>
</clipPath>
</defs>
</svg>
