<svg width="60" height="60" viewBox="0 0 60 60" fill="none" xmlns="http://www.w3.org/2000/svg">
<g clip-path="url(#clip0_88_114)">
<path opacity="0.1" fill-rule="evenodd" clip-rule="evenodd" d="M30 11.25C25.0272 11.25 20.2581 13.2254 16.7417 16.7417C13.2254 20.2581 11.25 25.0272 11.25 30C11.25 34.9728 13.2254 39.7419 16.7417 43.2583C20.2581 46.7746 25.0272 48.75 30 48.75C34.9728 48.75 39.7419 46.7746 43.2583 43.2583C46.7746 39.7419 48.75 34.9728 48.75 30C48.75 25.0272 46.7746 20.2581 43.2583 16.7417C39.7419 13.2254 34.9728 11.25 30 11.25ZM3.75 30C3.75 15.5025 15.5025 3.75 30 3.75C44.4975 3.75 56.25 15.5025 56.25 30C56.25 44.4975 44.4975 56.25 30 56.25C15.5025 56.25 3.75 44.4975 3.75 30Z" fill="black"/>
<path fill-rule="evenodd" clip-rule="evenodd" d="M30 11.25C25.1659 11.2391 20.5165 13.1062 17.0325 16.4575C16.3107 17.1249 15.3557 17.4822 14.3731 17.4524C13.3905 17.4226 12.4588 17.0081 11.7788 16.2982C11.0987 15.5884 10.7246 14.6398 10.737 13.6568C10.7494 12.6738 11.1473 11.735 11.845 11.0425C16.7248 6.35364 23.2326 3.73959 30 3.75C30.9946 3.75 31.9484 4.14509 32.6517 4.84835C33.3549 5.55161 33.75 6.50544 33.75 7.5C33.75 8.49456 33.3549 9.44839 32.6517 10.1517C31.9484 10.8549 30.9946 11.25 30 11.25Z" fill="black"/>
</g>
<defs>
<clipPath id="clip0_88_114">
<rect width="60" height="60" fill="white"/>
</clipPath>
</defs>
</svg>
